<svg width="708" height="271" viewBox="0 0 708 271" fill="none" xmlns="http://www.w3.org/2000/svg">


<path fill-rule="evenodd" clip-rule="evenodd" d="M79.9944 1.0513C96.9108 44.9671 120.362 85.705 149.44 121.676H149.416V127.709L149.464 127.769V146.931C122.883 112.334 101.247 69.4337 85.3823 28.2418L82.2762 20.1778C81.8461 19.0668 80.7709 18.3261 79.5763 18.3261C78.3816 18.3261 77.3064 19.0668 76.8763 20.1778L73.7702 28.2418C57.9051 69.4457 36.2698 112.334 9.68855 146.931V127.805L9.76023 127.709V121.652C38.8264 85.6811 62.2656 44.9671 79.182 1.0513L79.5882 0L79.9944 1.0513ZM126.216 47.4281C126.646 47.2131 127.076 46.9622 127.506 46.6874C131.174 44.2862 133.587 40.1646 134.304 33.9404C134.316 33.809 134.328 33.6776 134.328 33.5462V30.1653C134.328 28.2419 132.775 26.6888 130.852 26.6888C128.928 26.6888 127.375 28.2419 127.375 30.1653V33.3431C126.802 37.9545 125.201 39.9018 123.707 40.8694C121.999 41.9805 119.717 42.315 116.958 42.315H104.796C111.355 55.1098 118.499 67.5462 126.216 79.5765V47.4281ZM145.856 151.698C118.379 116.3 96.1702 72.3367 79.9945 30.3204L79.5883 29.2691L79.1822 30.3204C63.0064 72.3247 40.7977 116.276 13.3205 151.686L25.3507 158.806C45.0387 124.962 61.2981 94.6768 73.8181 59.0281L76.8406 50.4266C77.2468 49.2677 78.3459 48.4912 79.5764 48.4912H79.6242C80.8547 48.4912 81.9418 49.2677 82.36 50.4266L85.3825 59.0281C97.9025 94.6888 114.162 124.973 133.85 158.818L145.88 151.698H145.856ZM144.029 171.243L87.2224 204.789C82.0734 207.823 75.6939 207.823 70.5449 204.789L13.906 171.326C12.8188 170.681 11.4091 170.705 10.4415 171.518C9.27069 172.509 9.07954 174.194 9.9397 175.412L76.2195 268.811C76.8288 269.671 77.8562 270.125 78.8717 270.017C79.911 270.125 80.9265 269.671 81.5358 268.811L147.851 175.412C148.64 174.301 148.544 172.784 147.624 171.78C146.705 170.777 145.199 170.55 144.029 171.243ZM80.6036 168.125C79.9705 168.483 79.1939 168.483 78.5608 168.125H78.5966L78.0471 167.814L39.8537 145.199C55.4321 117.555 68.6809 91.1767 79.2895 60.9517L79.6001 60.0557L79.9107 60.9517C90.5193 91.1767 103.756 117.555 119.347 145.199L81.1532 167.814L80.6036 168.125ZM30.3206 161.757L77.6531 189.784C78.2504 190.142 78.9194 190.334 79.5884 190.369C80.2574 190.322 80.9264 190.142 81.5238 189.784L128.844 161.769C126.586 157.887 124.352 154.04 122.19 150.229L84.0923 172.796C83.9746 172.866 83.855 172.937 83.7337 173.009L83.7277 173.013C82.4344 173.785 80.9507 174.672 79.5765 174.672C78.1929 174.672 76.8278 173.853 75.5778 173.104C75.4031 172.999 75.2306 172.896 75.0606 172.796L36.9629 150.229C34.7886 154.028 32.5665 157.875 30.3086 161.757H30.3206ZM152.259 70.6881C152.259 68.7647 153.812 67.2117 155.736 67.2117L155.748 67.2236C157.588 67.2236 159.081 68.6572 159.2 70.4612V74.4752C158.484 80.6994 156.07 84.821 152.403 87.2223C151.973 87.497 151.543 87.7479 151.113 87.9629C150.599 88.2019 149.44 88.3572 149.44 88.3572V112.37C141.997 102.836 134.949 92.9805 128.306 82.8378H141.914C144.637 82.8259 146.907 82.4914 148.592 81.3923C150.085 80.4246 151.686 78.4773 152.259 73.8659V70.6881ZM9.74844 112.334L9.76039 112.319V112.334H9.74844ZM9.76039 112.319V88.3452C9.76039 88.3452 8.60157 88.1899 8.08786 87.951C7.64584 87.736 7.21576 87.4851 6.79763 87.2103C3.11807 84.809 0.716797 80.6875 0 74.4633V70.4492C0.119466 68.6453 1.52917 67.2117 3.45257 67.2117C5.37598 67.2117 6.92904 68.7647 6.92904 70.6881V73.8659C7.50248 78.4654 9.11527 80.4246 10.5967 81.3923C12.2811 82.4914 14.551 82.8378 17.2748 82.8378H30.8581C24.2194 92.9631 17.1868 102.802 9.76039 112.319ZM32.9726 47.4281C32.5306 47.2131 32.1005 46.9622 31.6824 46.6875C28.0028 44.2862 25.6016 40.1646 24.8848 33.9404C24.8609 33.809 24.8609 33.6776 24.8609 33.5462V30.1653C24.8609 28.2419 26.4139 26.6888 28.3373 26.6888C30.2608 26.6888 31.8138 28.2419 31.8138 30.1653V33.3431C32.3872 37.9425 34 39.9018 35.4814 40.8694C37.1778 41.9805 39.4716 42.315 42.2313 42.315H54.369C47.8223 55.0979 40.6902 67.5224 32.9726 79.5406V47.4281Z" fill="#FFB247"/></svg>